<?xml version="1.0"?>
<svg xmlns="http://www.w3.org/2000/svg" xmlns:xlink="http://www.w3.org/1999/xlink" xmlns:svgjs="http://svgjs.com/svgjs" version="1.1" width="512" height="512" x="0" y="0" viewBox="0 0 16.933333 16.933334" style="enable-background:new 0 0 512 512" xml:space="preserve" class=""><g><g xmlns="http://www.w3.org/2000/svg" id="layer1" transform="translate(0 -280.067)"><path id="path14900" d="m2.9093357 284.29937a.26460982.26460982 0 0 0 -.2635488.26561v11.11095a.26460982.26460982 0 0 0 .2635488.26614h11.9062503c.581742 0 1.058831-.47711 1.058852-1.05885v-10.31824a.26460982.26460982 0 0 0 -.264067-.26561z" fill="#90513a" font-variant-ligatures="normal" font-variant-position="normal" font-variant-caps="normal" font-variant-numeric="normal" font-variant-alternates="normal" font-feature-settings="normal" text-indent="0" text-align="start" text-decoration-line="none" text-decoration-style="solid" text-decoration-color="#000000" text-transform="none" text-orientation="mixed" white-space="normal" shape-padding="0" isolation="auto" mix-blend-mode="normal" solid-color="#000000" solid-opacity="1" vector-effect="none" data-original="#35ade8" class=""/><path id="path14927" d="m13.229121 284.29937v3.7052h.793234v-.52917-.75292-2.42311z" fill="#784330" font-variant-ligatures="normal" font-variant-position="normal" font-variant-caps="normal" font-variant-numeric="normal" font-variant-alternates="normal" font-feature-settings="normal" text-indent="0" text-align="start" text-decoration-line="none" text-decoration-style="solid" text-decoration-color="#000000" text-transform="none" text-orientation="mixed" white-space="normal" shape-padding="0" isolation="auto" mix-blend-mode="normal" solid-color="#000000" solid-opacity="1" vector-effect="none" data-original="#309cd1" class=""/><path id="path14907" d="m4.2064158 281.1254a.26460982.26460982 0 0 0 -.2382282.26355v4.76405a.26460982.26460982 0 0 0 .2656152.26355h1.2361016l2.8416859 2.06602a.26460982.26460982 0 0 0 .154514.0512h4.7635327a.26460982.26460982 0 0 0 .263551-.26561v-6.87917a.26460982.26460982 0 0 0 -.263551-.26355h-8.9958342a.26460982.26460982 0 0 0 -.027387 0z" fill="#e9e9ff" font-variant-ligatures="normal" font-variant-position="normal" font-variant-caps="normal" font-variant-numeric="normal" font-variant-alternates="normal" font-feature-settings="normal" text-indent="0" text-align="start" text-decoration-line="none" text-decoration-style="solid" text-decoration-color="#000000" text-transform="none" text-orientation="mixed" white-space="normal" shape-padding="0" isolation="auto" mix-blend-mode="normal" solid-color="#000000" solid-opacity="1" vector-effect="none" data-original="#e9e9ff" class=""/><g fill="#4a4a52"><path id="path5811-0-8-9-1" d="m5.794223 282.7133a.26460982.26460982 0 0 0 .0273.52734h5.82031a.26460982.26460982 0 1 0 0-.52734h-5.82031a.26460982.26460982 0 0 0 -.0273 0z" font-variant-ligatures="normal" font-variant-position="normal" font-variant-caps="normal" font-variant-numeric="normal" font-variant-alternates="normal" font-feature-settings="normal" text-indent="0" text-align="start" text-decoration-line="none" text-decoration-style="solid" text-decoration-color="#000000" text-transform="none" text-orientation="mixed" white-space="normal" shape-padding="0" isolation="auto" mix-blend-mode="normal" solid-color="#000000" solid-opacity="1" vector-effect="none" fill="#4a4a52" data-original="#4a4a52" class=""/><path id="path2684-60-5" d="m5.8215629 284.29923a.26465.26465 0 1 0 0 .5293h5.8203101a.26465.26465 0 1 0 0-.5293z" font-variant-ligatures="normal" font-variant-position="normal" font-variant-caps="normal" font-variant-numeric="normal" font-variant-alternates="normal" font-feature-settings="normal" text-indent="0" text-align="start" text-decoration-line="none" text-decoration-style="solid" text-decoration-color="#000000" text-transform="none" text-orientation="mixed" white-space="normal" shape-padding="0" isolation="auto" mix-blend-mode="normal" solid-color="#000000" solid-opacity="1" vector-effect="none" fill="#4a4a52" data-original="#4a4a52" class=""/><path id="path2686-6-4" d="m7.936803 285.88712a.26465.26465 0 1 0 0 .5293h3.70507a.26465.26465 0 1 0 0-.5293z" font-variant-ligatures="normal" font-variant-position="normal" font-variant-caps="normal" font-variant-numeric="normal" font-variant-alternates="normal" font-feature-settings="normal" text-indent="0" text-align="start" text-decoration-line="none" text-decoration-style="solid" text-decoration-color="#000000" text-transform="none" text-orientation="mixed" white-space="normal" shape-padding="0" isolation="auto" mix-blend-mode="normal" solid-color="#000000" solid-opacity="1" vector-effect="none" fill="#4a4a52" data-original="#4a4a52" class=""/></g><path id="path14953" d="m12.70047 281.1254a.26460982.26460982 0 0 1 .263551.26355v6.87917a.26460982.26460982 0 0 1 -.263551.26561h.529167a.26460982.26460982 0 0 0 .263551-.26561v-6.87917a.26460982.26460982 0 0 0 -.263551-.26355z" fill="#d4d4e8" font-variant-ligatures="normal" font-variant-position="normal" font-variant-caps="normal" font-variant-numeric="normal" font-variant-alternates="normal" font-feature-settings="normal" text-indent="0" text-align="start" text-decoration-line="none" text-decoration-style="solid" text-decoration-color="#000000" text-transform="none" text-orientation="mixed" white-space="normal" shape-padding="0" isolation="auto" mix-blend-mode="normal" solid-color="#000000" solid-opacity="1" vector-effect="none" data-original="#d4d4e8" class=""/><path id="path14916" d="m1.3233862 285.88687c-.1471295-.00053-.2664645.119-.2656152.26613v8.73022c0 .58174.4771098 1.05885 1.0588492 1.05885h12.6989658c.1191-.0002.209802-.0205.284224-.0391-.373283-.13508-.756233-.50058-.799952-.90813-.0074-.036-.01138-.0731-.01138-.11162v-6.6151c-.00053-.14612-.119497-.26411-.265618-.26355h-5.4709804l-2.8396221-2.06654c-.045421-.0333-.1002718-.0512-.1565778-.0512z" fill="#a65e44" font-variant-ligatures="normal" font-variant-position="normal" font-variant-caps="normal" font-variant-numeric="normal" font-variant-alternates="normal" font-feature-settings="normal" text-indent="0" text-align="start" text-decoration-line="none" text-decoration-style="solid" text-decoration-color="#000000" text-transform="none" text-orientation="mixed" white-space="normal" shape-padding="0" isolation="auto" mix-blend-mode="normal" solid-color="#000000" solid-opacity="1" vector-effect="none" data-original="#3abeff" class=""/><path id="path2848" d="m14.022871 288.00457c.146121-.00053.265088.11743.265618.26355v6.6151c0 .0385.004.0756.01138.11162.04345.40508.422113.76781.793231.90485.100579-.0278.194532-.0714.28112-.12557-.276582-.17796-.511527-.46552-.545185-.77928-.007-.036-.01138-.0731-.01138-.11162v-6.6151c-.000529-.14612-.119499-.26411-.265618-.26355zm1.027327 7.90908c-.01355.003-.02722.006-.04186.009.01413-.003.02794-.006.04186-.009z" fill="#784330" font-variant-ligatures="normal" font-variant-position="normal" font-variant-caps="normal" font-variant-numeric="normal" font-variant-alternates="normal" font-feature-settings="normal" text-indent="0" text-align="start" text-decoration-line="none" text-decoration-style="solid" text-decoration-color="#000000" text-transform="none" text-orientation="mixed" white-space="normal" shape-padding="0" isolation="auto" mix-blend-mode="normal" solid-color="#000000" solid-opacity="1" vector-effect="none" data-original="#309cd1" class=""/></g></g></svg>
